<?xml version="1.0" encoding="UTF-8"?>
<svg width="18px" height="18px" viewBox="0 0 18 18" version="1.1" xmlns="http://www.w3.org/2000/svg" xmlns:xlink="http://www.w3.org/1999/xlink">
    <!-- Generator: sketchtool 61.2 (101010) - https://sketch.com -->
    <title>F2A57984-094B-4208-B8B8-E9D1780613CE</title>
    <desc>Created with sketchtool.</desc>
    <g id="Member" stroke="none" stroke-width="1" fill="none" fill-rule="evenodd">
        <g id="Homepage-Member-1440" transform="translate(-219.000000, -3403.000000)">
            <g id="Group-Copy" transform="translate(24.000000, 3394.000000)">
                <g id="Sku-Tile-/-Horizonatl-Tiles-/-Large-Bucket-/-Cart-/-List-/-Base-Product-tile-/-member-/-standard-/-vertical-/1440">
                    <g id="Vertical-tile-/-promotional-Copy-Product-tile-/-Master-tile-/-vertical-/-standard">
                        <g id="product-tile-/-vertical-/-standard">
                            <g id="product-tile-/-vertical-/-standard-hover">
                                <g id="Icon-/-magnifying-galss" transform="translate(192.000000, 6.000000)">
                                    <g id="Group">
                                        <g id="icon-/-search">
                                            <rect id="Rectangle" x="0" y="0" width="24" height="24"></rect>
                                            <g id="Zoom" transform="translate(3.000000, 3.000000)" fill="#9B9B9B">
                                                <path d="M8.01673061,-2.13162821e-14 C12.4442487,-2.13162821e-14 16.0334612,3.58921255 16.0334612,8.01673061 C16.0334612,9.98081404 15.3271463,11.7799288 14.1546622,13.1739292 L17.7450266,16.6132858 C18.06597,16.9207515 18.076896,17.4301777 17.7694303,17.7511212 L17.7573592,17.7634539 L17.7573592,17.7634539 C17.4342726,18.0865405 16.9121985,18.0921385 16.5822584,17.7760539 L12.9727783,14.3183943 C11.6088178,15.3925867 9.88761632,16.0334612 8.01673061,16.0334612 C3.58921255,16.0334612 -5.98632255e-13,12.4442487 -5.98632255e-13,8.01673061 C-5.98632255e-13,3.58921255 3.58921255,-2.13162821e-14 8.01673061,-2.13162821e-14 Z M8.01673087,1.76595113 C4.56452055,1.76595113 1.76595113,4.56452055 1.76595113,8.01673087 C1.76595113,11.4689412 4.56452055,14.2675106 8.01673087,14.2675106 C11.4689412,14.2675106 14.2675106,11.4689412 14.2675106,8.01673087 C14.2675106,4.56452055 11.4689412,1.76595113 8.01673087,1.76595113 Z M8.06643261,4.45385876 C8.52052183,4.45385876 8.88863388,4.82197081 8.88863388,5.27606003 L8.888,7.267 L10.8796248,7.26705091 C11.333714,7.26705091 11.701826,7.63516295 11.701826,8.08925217 C11.701826,8.54334139 11.333714,8.91145344 10.8796248,8.91145344 L8.888,8.911 L8.88863388,10.9024443 C8.88863388,11.3565335 8.52052183,11.7246456 8.06643261,11.7246456 C7.61234339,11.7246456 7.24423134,11.3565335 7.24423134,10.9024443 L7.244,8.911 L5.25324047,8.91145344 C4.79915125,8.91145344 4.4310392,8.54334139 4.4310392,8.08925217 C4.4310392,7.63516295 4.79915125,7.26705091 5.25324047,7.26705091 L7.244,7.267 L7.24423134,5.27606003 C7.24423134,4.82197081 7.61234339,4.45385876 8.06643261,4.45385876 Z" id="Combined-Shape"></path>
                                            </g>
                                        </g>
                                    </g>
                                </g>
                            </g>
                        </g>
                    </g>
                </g>
            </g>
        </g>
    </g>
</svg>