<?xml version="1.0" encoding="UTF-8"?>
<svg width="135px" height="134px" viewBox="0 0 135 134" version="1.1" xmlns="http://www.w3.org/2000/svg" xmlns:xlink="http://www.w3.org/1999/xlink">
    <!-- Generator: sketchtool 61.2 (101010) - https://sketch.com -->
    <title>CE65E525-BED2-4E21-BF14-50CADEE70E1B</title>
    <desc>Created with sketchtool.</desc>
    <g id="Asset-Artboard-Page" stroke="none" stroke-width="1" fill="none" fill-rule="evenodd">
        <g id="paper-Icon-/-categories-/-Book" transform="translate(0.600000, 0.000000)" stroke-width="2.26244344">
            <g id="Group-Copy" transform="translate(37.170000, 37.000000)">
                <rect id="Rectangle" stroke="#4A4A4A" x="1.86517468e-13" y="5.27903469" width="10.5580694" height="5.27903469" rx="2.63951735"></rect>
                <rect id="Rectangle-Copy" stroke="#4A4A4A" x="1.86517468e-13" y="20.361991" width="10.5580694" height="5.27903469" rx="2.63951735"></rect>
                <rect id="Rectangle-Copy-2" stroke="#4A4A4A" x="1.86517468e-13" y="35.4449472" width="10.5580694" height="5.27903469" rx="2.63951735"></rect>
                <rect id="Rectangle-Copy-3" stroke="#4A4A4A" x="1.86517468e-13" y="49.7737557" width="10.5580694" height="5.27903469" rx="2.63951735"></rect>
                <path d="M5.27903469,5.30127448 L5.27903469,1.50829563 C5.27903469,0.675286953 5.95432164,-8.910891e-14 6.78733032,-8.8817842e-14 L49.0196078,-8.8817842e-14 C49.8526165,-9.26701648e-14 50.5279035,0.675286953 50.5279035,1.50829563 L50.5279035,22.6244344 L50.5279035,22.6244344" id="vvv" stroke="#4A4A4A"></path>
                <line x1="5.6561086" y1="10.5580694" x2="5.6561086" y2="20.361991" id="Path-2" stroke="#4A4A4A"></line>
                <line x1="5.6561086" y1="25.6410256" x2="5.6561086" y2="35.4449472" id="Path-3" stroke="#4A4A4A"></line>
                <line x1="5.6561086" y1="39.9698341" x2="5.6561086" y2="49.7737557" id="Path-4" stroke="#4A4A4A"></line>
                <rect id="Rectangle" stroke="#4A4A4A" x="16.5912519" y="7.54147813" width="27.1493213" height="18.0995475" rx="1.50829563"></rect>
                <path d="M5.27903469,54.9470815 L5.27903469,58.0693816 C5.27903469,58.9023903 5.95432164,59.5776772 6.78733032,59.5776772 L49.0196078,59.5776772 C49.8526165,59.5776772 50.5279035,58.9023903 50.5279035,58.0693816 L50.5279035,45.2488688 L50.5279035,45.2488688" id="Path-5" stroke="#4A4A4A"></path>
                <line x1="22.6244344" y1="13.9517345" x2="37.7073906" y2="13.9517345" id="Path-6" stroke="#CB2026" stroke-linecap="round"></line>
                <line x1="22.6244344" y1="19.984917" x2="37.7073906" y2="19.984917" id="Path-6-Copy" stroke="#CB2026" stroke-linecap="round"></line>
                <path d="M51.2193537,44.9262364 L47.0354238,48.7456072 C46.7278144,49.0264137 46.250809,49.0046856 45.9700025,48.6970761 C45.8584625,48.5748896 45.7901963,48.4194152 45.7757225,48.2546086 L45.2488688,42.255568 L45.2488688,42.255568 L53.280039,15.1433523 C53.7797168,13.4565033 55.552247,12.4941108 57.239096,12.9937886 C57.246627,12.9960194 57.2541497,12.9982781 57.261664,13.0005646 C58.9619203,13.5179246 59.9278943,15.3085306 59.426556,17.0135798 L51.2193537,44.9262364 L51.2193537,44.9262364 Z" id="Path-7" stroke="#4A4A4A"></path>
                <line x1="52.7903469" y1="16.5912519" x2="58.8235294" y2="18.0995475" id="Path-8" stroke="#4A4A4A"></line>
                <line x1="52.0361991" y1="20.361991" x2="58.0693816" y2="21.8702866" id="Path-8-Copy" stroke="#4A4A4A"></line>
            </g>
        </g>
    </g>
</svg>