<?xml version="1.0" encoding="UTF-8"?>
<svg width="101px" height="100px" viewBox="0 0 101 100" version="1.1" xmlns="http://www.w3.org/2000/svg" xmlns:xlink="http://www.w3.org/1999/xlink">
    <!-- Generator: sketchtool 61.2 (101010) - https://sketch.com -->
    <title>CD309AB3-CBAC-44E5-8769-BAA145CC323A</title>
    <desc>Created with sketchtool.</desc>
    <defs>
        <path d="M11.5658191,9.5555723 C12.4522274,9.5555723 13.2093564,9.86950386 13.8372289,10.4973764 C14.4651015,11.1252489 14.779033,11.882378 14.779033,12.7687862 C14.779033,13.6551945 14.4651015,14.4123236 13.8372289,15.0401961 C13.2093564,15.6680686 12.4522274,15.9820002 11.5658191,15.9820002 C10.6732552,15.9820002 9.91304839,15.6680686 9.28517586,15.0401961 C8.65730332,14.4123236 8.34337177,13.6551945 8.34337177,12.7687862 C8.34337177,11.882378 8.65730332,11.1252489 9.28517586,10.4973764 C9.91304839,9.86950386 10.6732552,9.5555723 11.5658191,9.5555723 Z" id="path-1"></path>
        <path d="M4.58479283,0.929759362 C5.47735672,0.929759362 6.23756352,1.2452298 6.86543605,1.87618014 C7.49330858,2.50713047 7.80724014,3.2657984 7.80724014,4.15220668 C7.80724014,5.03861496 7.49330858,5.795744 6.86543605,6.42361653 C6.23756352,7.05148906 5.47735672,7.36542062 4.58479283,7.36542062 C3.69838455,7.36542062 2.9412555,7.05148906 2.31338297,6.42361653 C1.68551044,5.795744 1.37157888,5.03861496 1.37157888,4.15220668 C1.37157888,3.2657984 1.68551044,2.50713047 2.31338297,1.87618014 C2.9412555,1.2452298 3.69838455,0.929759362 4.58479283,0.929759362 Z" id="path-2"></path>
        <path d="M11.5658191,14.6708612 C12.0890462,14.6708612 12.5368603,14.4846567 12.9092749,14.1122421 C13.2816895,13.7398275 13.467894,13.2920134 13.467894,12.7687862 C13.467894,12.2455591 13.2816895,11.797745 12.9092749,11.4253304 C12.5368603,11.0529158 12.0890462,10.8667113 11.5658191,10.8667113 C11.0364364,10.8667113 10.5855445,11.0529158 10.2131299,11.4253304 C9.84071529,11.797745 9.65451079,12.2455591 9.65451079,12.7687862 C9.65451079,13.2920134 9.84071529,13.7398275 10.2131299,14.1122421 C10.5855445,14.4846567 11.0364364,14.6708612 11.5658191,14.6708612 Z" id="path-3"></path>
        <path d="M4.58353428,6.05410674 C5.112917,6.05410674 5.5638089,5.86790224 5.93622349,5.49548765 C6.30863808,5.12307306 6.49484258,4.67525893 6.49484258,4.15203182 C6.49484258,3.62880471 6.30863808,3.18099058 5.93622349,2.80857599 C5.5638089,2.4361614 5.112917,2.2499569 4.58353428,2.2499569 C4.06030717,2.2499569 3.61249304,2.43462252 3.24007845,2.80395931 C2.86766386,3.17329609 2.68145936,3.6226491 2.68145936,4.15203182 C2.68145936,4.67525893 2.86766386,5.12307306 3.24007845,5.49548765 C3.61249304,5.86790224 4.06030717,6.05410674 4.58353428,6.05410674 Z" id="path-4"></path>
        <path d="M13.2233947,6.9278885 C14.109803,6.9278885 14.866932,7.24182005 15.4948045,7.86969258 C16.1226771,8.49756511 16.4366086,9.25469416 16.4366086,10.1411024 C16.4366086,11.0275107 16.1226771,11.7846398 15.4948045,12.4125123 C14.866932,13.0403848 14.109803,13.3543164 13.2233947,13.3543164 C12.3308308,13.3543164 11.570624,13.0403848 10.9427515,12.4125123 C10.3148789,11.7846398 10.0009474,11.0275107 10.0009474,10.1411024 C10.0009474,9.25469416 10.3148789,8.49756511 10.9427515,7.86969258 C11.570624,7.24182005 12.3308308,6.9278885 13.2233947,6.9278885 Z" id="path-5"></path>
        <path d="M3.66577187,1.28774344 C4.55833576,1.28774344 5.31854257,1.60321388 5.9464151,2.23416421 C6.57428763,2.86511455 6.88821918,3.62378248 6.88821918,4.51019076 C6.88821918,5.39659904 6.57428763,6.15372808 5.9464151,6.78160061 C5.31854257,7.40947314 4.55833576,7.7234047 3.66577187,7.7234047 C2.77936359,7.7234047 2.02223454,7.40947314 1.39436201,6.78160061 C0.766489482,6.15372808 0.452557925,5.39659904 0.452557925,4.51019076 C0.452557925,3.62378248 0.766489482,2.86511455 1.39436201,2.23416421 C2.02223454,1.60321388 2.77936359,1.28774344 3.66577187,1.28774344 Z" id="path-6"></path>
        <path d="M13.2233947,12.0431774 C13.7466218,12.0431774 14.1944359,11.8569729 14.5668505,11.4845583 C14.9392651,11.1121437 15.1254696,10.6643295 15.1254696,10.1411024 C15.1254696,9.61787533 14.9392651,9.1700612 14.5668505,8.79764661 C14.1944359,8.42523202 13.7466218,8.23902752 13.2233947,8.23902752 C12.694012,8.23902752 12.2431201,8.42523202 11.8707055,8.79764661 C11.4982909,9.1700612 11.3120864,9.61787533 11.3120864,10.1411024 C11.3120864,10.6643295 11.4982909,11.1121437 11.8707055,11.4845583 C12.2431201,11.8569729 12.694012,12.0431774 13.2233947,12.0431774 Z" id="path-7"></path>
        <path d="M3.66614769,6.41225035 C4.19553041,6.41225035 4.6464223,6.22604585 5.01883689,5.85363126 C5.39125148,5.48121667 5.57745598,5.03340254 5.57745598,4.51017543 C5.57745598,3.98694833 5.39125148,3.53913419 5.01883689,3.16671961 C4.6464223,2.79430502 4.19553041,2.60810051 3.66614769,2.60810051 C3.14292058,2.60810051 2.69510645,2.79276614 2.32269186,3.16210292 C1.95027727,3.5314397 1.76407277,3.98079271 1.76407277,4.51017543 C1.76407277,5.03340254 1.95027727,5.48121667 2.32269186,5.85363126 C2.69510645,6.22604585 3.14292058,6.41225035 3.66614769,6.41225035 Z" id="path-8"></path>
    </defs>
    <g id="Asset-Artboard-Page" stroke="none" stroke-width="1" fill="none" fill-rule="evenodd">
        <g id="Icon-/-Box-Icon-/-membership-benefits-/-box" transform="translate(0.200000, 0.000000)">
            <g id="Group">
                <rect id="Rectangle" x="0" y="0" width="100" height="100"></rect>
                <polygon id="Path-11" stroke="#4A4A4A" stroke-width="1.92307692" points="20.8483887 32.4257812 20.8483887 43.8938176 50.1606007 55.1030023 79.4293056 43.8938176 79.4293056 32.4257812 50.1606007 43.7643918"></polygon>
                <line x1="50.1388472" y1="43.7643918" x2="50.1388472" y2="55.1030023" id="Path-12" stroke="#4A4A4A" stroke-width="1.92307692"></line>
                <polyline id="Path-13" stroke="#4A4A4A" stroke-width="1.92307692" points="20.2413236 31.9292055 50.1469747 21 80.0348057 31.9292055"></polyline>
                <polyline id="Path-14" stroke="#4A4A4A" stroke-width="1.92307692" points="23.704208 45.1439428 23.704208 69.1942984 50.1363334 79.5442959 76.7725548 69.1942984 76.7725548 45.1439428"></polyline>
                <line x1="50.1363334" y1="55.1030023" x2="50.1363334" y2="79.5442959" id="Path-15" stroke="#4A4A4A" stroke-width="1.92307692"></line>
                <g id="Untitled-3-02" transform="translate(28.661202, 54.111103)" fill-rule="nonzero">
                    <g id="Path" transform="translate(11.561202, 12.768786) rotate(15.819470) translate(-11.561202, -12.768786) " fill="#CC0000">
                        <use xlink:href="#path-1"></use>
                        <use xlink:href="#path-1"></use>
                    </g>
                    <g id="Path" transform="translate(4.589410, 4.147590) rotate(15.819470) translate(-4.589410, -4.147590) " fill="#CC0000">
                        <use xlink:href="#path-2"></use>
                        <use xlink:href="#path-2"></use>
                    </g>
                    <g id="Path" transform="translate(11.561202, 12.768786) rotate(15.819470) translate(-11.561202, -12.768786) ">
                        <use fill="#CC0000" xlink:href="#path-3"></use>
                        <use fill="#FFFFFF" xlink:href="#path-3"></use>
                    </g>
                    <g id="Path" transform="translate(4.588151, 4.152032) rotate(15.819470) translate(-4.588151, -4.152032) ">
                        <use fill="#CC0000" xlink:href="#path-4"></use>
                        <use fill="#FFFFFF" xlink:href="#path-4"></use>
                    </g>
                </g>
                <g id="Group-2" transform="translate(56.225304, 54.752128)">
                    <g id="Untitled-3-03" fill-rule="nonzero">
                        <g id="Path" transform="translate(13.218778, 10.141102) rotate(-4.669328) translate(-13.218778, -10.141102) " fill="#CC0000">
                            <use xlink:href="#path-5"></use>
                            <use xlink:href="#path-5"></use>
                        </g>
                        <g id="Path" transform="translate(3.670389, 4.505574) rotate(-4.669328) translate(-3.670389, -4.505574) " fill="#CC0000">
                            <use xlink:href="#path-6"></use>
                            <use xlink:href="#path-6"></use>
                        </g>
                        <g id="Path" transform="translate(13.218778, 10.141102) rotate(-4.669328) translate(-13.218778, -10.141102) ">
                            <use fill="#CC0000" xlink:href="#path-7"></use>
                            <use fill="#FFFFFF" xlink:href="#path-7"></use>
                        </g>
                        <g id="Path" transform="translate(3.670764, 4.510175) rotate(-4.669328) translate(-3.670764, -4.510175) ">
                            <use fill="#CC0000" xlink:href="#path-8"></use>
                            <use fill="#FFFFFF" xlink:href="#path-8"></use>
                        </g>
                    </g>
                    <line x1="5.17675976" y1="14.4571091" x2="11.6892778" y2="0.0177766841" id="Path-18-Copy" stroke="#4A4A4A" stroke-width="1.28205128" stroke-linecap="round"></line>
                </g>
                <line x1="30.9944797" y1="68.4550886" x2="42.0527874" y2="57.1139668" id="Path-18" stroke="#4A4A4A" stroke-width="1.28205128" stroke-linecap="round"></line>
            </g>
        </g>
    </g>
</svg>