<?xml version="1.0" encoding="UTF-8"?>
<svg width="163px" height="39px" viewBox="0 0 163 39" version="1.1" xmlns="http://www.w3.org/2000/svg" xmlns:xlink="http://www.w3.org/1999/xlink">
    <!-- Generator: sketchtool 58 (101010) - https://sketch.com -->
    <title>D016439E-89DE-4510-AA2C-DF4BEB3A9896</title>
    <desc>Created with sketchtool.</desc>
    <g id="Public" stroke="none" stroke-width="1" fill="none" fill-rule="evenodd">
        <g id="1280-Public" transform="translate(-22.000000, -41.000000)" fill-rule="nonzero">
            <g id="header-Header-/-public-/-1280">
                <g id="Header-1440-Copy-Header-/-member-/-1280">
                    <g id="Group-order-header-logo-Logo-/-business-advantage" transform="translate(22.000000, 41.000000)">
                        <g id="logo">
                            <g id="Group" transform="translate(0.000000, 0.800000)">
                                <g id="Group-9" transform="translate(0.000000, 21.881564)" fill="#000000">
                                    <path d="M-5.08748589e-13,12.6239998 L-5.08748589e-13,11.7839998 L1.48799995,11.7839998 L1.48799995,0.799999986 L-5.08748589e-13,0.799999986 L-5.08748589e-13,-1.13686838e-14 L3.91999988,-1.13686838e-14 C6.23999981,-1.13686838e-14 8.75999973,0.319999995 8.75999973,3.07199995 C8.77721235,4.31379526 7.99213526,5.42518014 6.81599979,5.8239999 L6.81599979,5.8239999 C8.37227452,6.15351232 9.48420085,7.529229 9.48001157,9.11999985 C9.48001157,11.4479998 7.67199976,12.6239998 5.51999983,12.6239998 L-5.08748589e-13,12.6239998 Z M4.44799989,5.47200012 C6.11199987,5.47200012 7.81599984,5.07200011 7.81599984,3.07200006 C7.81599984,1.72000002 6.97599985,0.8 4.1119999,0.8 L2.43199992,0.8 L2.43199992,5.45600012 L4.44799989,5.47200012 Z M4.93599985,11.784 C6.95199978,11.784 8.52799972,11.272 8.52799972,8.97599995 C8.52799972,8.17599993 8.14399973,6.31199989 4.81599985,6.31199989 L2.41599994,6.31199989 L2.41599994,11.784 L4.93599985,11.784 Z" id="Shape"></path>
                                    <path d="M17.5199996,11.1120003 C16.689272,12.1549843 15.4371288,12.7737249 14.1039997,12.8000004 C13.4758023,12.8681969 12.8491139,12.6589278 12.3879362,12.226958 C11.9267584,11.7949881 11.6769921,11.1833112 11.7039998,10.5520003 L11.7039998,5.45600016 L10.3359999,5.45600016 L10.3359999,4.65600014 L12.6159998,4.65600014 L12.6159998,10.3200003 C12.563482,10.7724904 12.7177666,11.2245424 13.0359694,11.5505062 C13.3541721,11.87647 13.8023756,12.041601 14.2559997,12.0000004 C15.6079996,12.0000004 16.5359996,11.2000003 17.5199996,10.2640003 L17.5199996,5.46400016 L16.1359996,5.46400016 L16.1359996,4.66400014 L18.3919995,4.66400014 L18.3919995,11.8640003 L19.7599995,11.8640003 L19.7599995,12.6640004 L17.5199996,12.6640004 L17.5199996,11.1120003 Z" id="Path"></path>
                                    <path d="M22.0239998,9.83999987 C22.0239998,11.2559999 23.4239997,12.0079999 24.7679997,12.0079999 C26.5439996,12.0079999 26.8879996,10.8719999 26.8879996,10.5199999 C26.8879996,8.11999988 21.1439998,9.57599987 21.1439998,6.63199989 C21.1439998,5.6639999 21.9439998,4.49599991 23.9679997,4.49599991 C24.8334805,4.49599991 25.6756149,4.77671139 26.3679996,5.2959999 L26.3679996,4.67999991 L27.1679995,4.67999991 L27.1679995,7.07999989 L26.4159996,7.07999989 C26.3599996,5.8719999 25.2799996,5.2719999 24.0159997,5.2719999 C23.1439998,5.2719999 22.0239998,5.4799999 22.0239998,6.49599991 C22.0239998,8.96799988 27.7679995,7.03999989 27.7679995,10.4959999 C27.7679995,11.5839999 26.5439996,12.7599998 24.7039997,12.7599998 C23.7083805,12.7486748 22.7527758,12.3664329 22.0239998,11.6879999 L22.0239998,12.5839998 L21.2239998,12.5839998 L21.2239998,9.83999987 L22.0239998,9.83999987 Z" id="Path"></path>
                                    <path d="M28.8159998,12.624 L28.8159998,11.824 L30.2719998,11.824 L30.2719998,5.42399998 L28.8559998,5.42399998 L28.8559998,4.62399998 L31.1519998,4.62399998 L31.1519998,11.824 L32.5999998,11.824 L32.5999998,12.624 L28.8159998,12.624 Z M30.2719998,1.00799999 L31.1519998,1.00799999 L31.1519998,3.07199993 L30.2719998,3.07199993 L30.2719998,1.00799999 Z" id="Shape"></path>
                                    <path d="M35.7600007,6.19199991 L35.7600007,6.19199991 C36.4749219,5.17505874 37.6220077,4.54830045 38.8640005,4.49599991 C41.3680004,4.49599991 41.6640004,5.82399991 41.6640004,7.69599992 L41.6640004,11.8639999 L43.0480003,11.8639999 L43.0480003,12.6639999 L39.4400005,12.6639999 L39.4400005,11.8639999 L40.8240004,11.8639999 L40.8240004,7.62399992 C40.8240004,5.85599991 40.2560005,5.31199991 38.8960005,5.31199991 C37.5914692,5.3463384 36.4007906,6.06317559 35.7600007,7.19999992 L35.7600007,11.8079999 L37.1040006,11.8079999 L37.1040006,12.6079999 L33.4640008,12.6079999 L33.4640008,11.8079999 L34.8800008,11.8079999 L34.8800008,5.40799991 L33.4640008,5.40799991 L33.4640008,4.60799991 L35.7600007,4.60799991 L35.7600007,6.19199991 Z" id="Path"></path>
                                    <path d="M44.5519979,8.99200007 C44.6011213,9.84867553 44.9922432,10.6497304 45.6375502,11.2153141 C46.2828571,11.7808978 47.1282767,12.0636183 47.9839978,12 C49.1961966,11.9973686 50.3297,11.3992137 51.0159978,10.4000001 L51.9999978,10.4000001 C51.2061768,11.9292677 49.6018389,12.8638335 47.8799979,12.8 C46.7884498,12.8388262 45.7272195,12.4366431 44.9355728,11.6841272 C44.1439261,10.9316113 43.6885082,9.89211365 43.6719137,8.80000008 C43.6647153,7.64236459 44.1302028,6.53190062 44.9607829,5.72548284 C45.791363,4.91906506 46.9150816,4.48655443 48.0719978,4.52800014 C50.7039978,4.49600014 52.3519978,6.40000011 52.3519978,8.99200007 L44.5519979,8.99200007 Z M51.4719974,8.1920001 C51.1792859,6.50996262 49.7193142,5.28211641 48.0119977,5.28211641 C46.3046811,5.28211641 44.8447095,6.50996262 44.5519979,8.1920001 L51.4719974,8.1920001 Z" id="Shape"></path>
                                    <path d="M54.4160002,9.84000008 C54.4160002,11.2560001 55.8160003,12.0000001 57.1520003,12.0000001 C58.9200003,12.0000001 59.2720003,10.8640001 59.2720003,10.5120001 C59.2720003,8.11200009 53.5200002,9.56800008 53.5200002,6.62400011 C53.5200002,5.65600012 54.3200002,4.48795586 56.3440003,4.48795586 C57.2101419,4.48389746 58.0535486,4.76503301 58.7440003,5.28800012 L58.7440003,4.67200013 L59.5440003,4.67200013 L59.5440003,7.0720001 L58.7520003,7.0720001 C58.7040003,5.86400012 57.6160003,5.26400012 56.3520003,5.26400012 C55.4720002,5.26400012 54.3520002,5.47200012 54.3520002,6.48800011 C54.3520002,8.96000008 60.0960003,7.0320001 60.0960003,10.4880001 C60.0960003,11.5760001 58.8720003,12.752 57.0320003,12.752 C56.036381,12.740675 55.0807763,12.3584331 54.3520002,11.6800001 L54.3520002,12.576 L53.5520002,12.576 L53.5520002,9.84000008 L54.4160002,9.84000008 Z" id="Path"></path>
                                    <path d="M62.1920001,9.83999998 C62.1920001,11.256 63.592,12.008 64.944,12.008 C66.712,12.008 67.064,10.872 67.064,10.52 C67.064,8.11999996 61.3200001,9.57599997 61.3200001,6.63199995 C61.3200001,5.66399994 62.1200001,4.49595566 64.136,4.49595566 C65.0021417,4.49189726 65.8455483,4.77303281 66.536,5.29599994 L66.536,4.67999993 L67.336,4.67999993 L67.336,7.07999995 L66.584,7.07999995 C66.528,5.87199994 65.44,5.27199994 64.184,5.27199994 C63.304,5.27199994 62.1840001,5.47999994 62.1840001,6.49599995 C62.1840001,8.96799997 67.93604,7.03999995 67.93604,10.496 C67.944,11.624 66.752,12.8 64.872,12.8 C63.8772893,12.7841254 62.9232559,12.402512 62.1920001,11.728 L62.1920001,12.624 L61.3920001,12.624 L61.3920001,9.83999998 L62.1920001,9.83999998 Z" id="Path"></path>
                                    <path d="M72.8640001,12.6239998 L72.8640001,11.7839998 L74.4640001,11.7839998 L78.3440001,0.799999986 L77.1520001,0.799999986 L77.1520001,-1.13686838e-14 L81.4480001,-1.13686838e-14 L81.4480001,0.799999986 L80.2400001,0.799999986 L84.1440002,11.7679998 L85.7440002,11.7679998 L85.7440002,12.6079998 L81.6080001,12.6079998 L81.6080001,11.7839998 L83.1120002,11.7839998 L81.9520001,8.64799985 L76.5280001,8.64799985 L75.4000001,11.7839998 L77.0000001,11.7839998 L77.0000001,12.6239998 L72.8640001,12.6239998 Z M81.6639999,7.82399969 L79.264,1.07200003 L79.264,1.07200003 L76.864,7.82399969 L81.6639999,7.82399969 Z" id="Shape"></path>
                                    <path d="M93.3439987,11.1520002 L93.3439987,11.1520002 C92.6266386,12.2093724 91.4213933,12.8300737 90.1439988,12.8000003 C88.6606321,12.7885678 87.2960439,11.986637 86.5642613,10.6962874 C85.8324788,9.40593787 85.8446771,7.82320435 86.5962613,6.54428729 C87.3478455,5.26537023 88.7246321,4.48456756 90.2079988,4.49600009 C91.4841628,4.51841081 92.6730117,5.14850076 93.4079987,6.19200013 L93.4079987,6.19200013 L93.4079987,0.800000016 L92.0559988,0.800000016 L92.0559988,3.41060513e-14 L94.2879987,3.41060513e-14 L94.2879987,11.8320002 L95.7199987,11.8320002 L95.7199987,12.6320003 L93.4079987,12.6320003 L93.3439987,11.1520002 Z M90.1439988,5.27999994 C88.9036935,5.23796635 87.7407647,5.88141586 87.1174928,6.95456827 C86.4942209,8.02772068 86.5116032,9.35667839 87.16273,10.4131621 C87.8138568,11.4696458 88.9932172,12.0824589 90.2319988,12.0079997 C91.9896935,11.9208709 93.3839948,10.4951979 93.4319987,8.73599982 C93.4667177,7.83416802 93.1336835,6.95690558 92.509239,6.30531133 C91.8847945,5.65371707 91.0224912,5.28367081 90.1199988,5.27999994 L90.1439988,5.27999994 Z" id="Shape"></path>
                                    <polygon id="Path" points="97.1999967 5.45600016 95.9359967 5.45600016 95.9359967 4.65600014 99.4559968 4.65600014 99.4559968 5.45600016 98.1119968 5.45600016 100.703997 11.4480003 103.175997 5.45600016 101.663997 5.45600016 101.663997 4.65600014 105.311997 4.65600014 105.311997 5.45600016 104.047997 5.45600016 101.055997 12.8000004 100.351997 12.8000004"></polygon>
                                    <path d="M113.952004,11.8319998 L115.304004,11.8319998 L115.304004,12.6319998 L113.080004,12.6319998 L113.080004,11.1999998 C112.244158,12.1675992 111.045518,12.7466521 109.768004,12.7999998 C108.637915,12.8213148 107.549622,12.3728733 106.76261,11.5615987 C105.975598,10.7503242 105.560397,9.64892077 105.616004,8.51999066 C105.717915,6.29551791 107.541269,4.538915 109.768004,4.51999066 C111.049965,4.51728231 112.26101,5.10803566 113.048004,6.11999996 L113.048004,6.11999996 L113.048004,4.67999999 L115.272004,4.67999999 L115.272004,5.47999997 L113.952004,5.47999997 L113.952004,11.8319998 Z M106.488004,8.48799983 C106.402289,9.7145112 107.008033,10.8863672 108.058229,11.5257142 C109.108426,12.1650612 110.427582,12.1650612 111.477778,11.5257142 C112.527975,10.8863672 113.133719,9.7145112 113.048004,8.48799983 C113.048273,7.62526262 112.700172,6.79896755 112.08264,6.19649755 C111.465109,5.59402755 110.630472,5.26643152 109.768004,5.288 C107.97625,5.27004396 106.503343,6.69658819 106.464004,8.48799983 L106.488004,8.48799983 Z" id="Shape"></path>
                                    <path d="M119.167995,6.19199991 L119.167995,6.19199991 C119.882916,5.17505874 121.030002,4.54830045 122.271995,4.49599991 C124.775995,4.49599991 125.079995,5.82399991 125.079995,7.69599992 L125.079995,11.8639999 L126.463995,11.8639999 L126.463995,12.6639999 L122.815995,12.6639999 L122.815995,11.8639999 L124.199995,11.8639999 L124.199995,7.62399992 C124.199995,5.85599991 123.639995,5.31199991 122.271995,5.31199991 C120.97947,5.35893846 119.804096,6.07385675 119.167995,7.19999992 L119.167995,11.8079999 L120.519995,11.8079999 L120.519995,12.6079999 L116.871995,12.6079999 L116.871995,11.8079999 L118.287995,11.8079999 L118.287995,5.40799991 L116.871995,5.40799991 L116.871995,4.60799991 L119.167995,4.60799991 L119.167995,6.19199991 Z" id="Path"></path>
                                    <path d="M128.047998,4.66399994 L128.047998,1.67199993 L128.927998,1.67199993 L128.927998,4.66399994 L130.527998,4.66399994 L130.527998,5.46399994 L128.927998,5.46399994 L128.927998,11.248 C128.927998,11.72 129.031998,11.84 129.487998,11.84 L130.679998,11.84 L130.679998,12.64 L129.559998,12.64 C128.383998,12.64 128.047998,12.552 128.047998,11.128 L128.047998,5.45599994 L126.687998,5.45599994 L126.687998,4.65599994 L128.047998,4.66399994 Z" id="Path"></path>
                                    <path d="M139.551996,11.8319997 L140.895996,11.8319997 L140.895996,12.6319997 L138.671996,12.6319997 L138.671996,11.1999997 C137.836149,12.1675991 136.63751,12.746652 135.359996,12.7999997 C134.230623,12.8189371 133.143747,12.3697485 132.357262,11.559018 C131.570778,10.7482875 131.154787,9.64827743 131.207996,8.51999986 C131.313841,6.29729992 133.134895,4.54291236 135.359996,4.5199805 C136.642236,4.51606511 137.853789,5.10706621 138.639996,6.11999996 L138.639996,6.11999996 L138.639996,4.68000002 L140.863996,4.68000002 L140.863996,5.47999998 L139.551996,5.47999998 L139.551996,11.8319997 Z M132.087996,8.48800009 C131.981992,9.72534528 132.582182,10.9168453 133.639557,11.568166 C134.696931,12.2194867 136.03106,12.2194867 137.088435,11.568166 C138.14581,10.9168453 138.746,9.72534528 138.639996,8.48800009 C138.640265,7.62526282 138.292164,6.7989677 137.674632,6.19649766 C137.0571,5.59402762 136.222463,5.26643157 135.359996,5.28800005 C133.563401,5.26123506 132.083028,6.69154693 132.047996,8.48800009 L132.087996,8.48800009 Z" id="Shape"></path>
                                    <path d="M149.831994,9.67999994 C149.910292,10.962513 149.791581,12.249451 149.479994,13.4959999 C148.88556,14.961772 147.427595,15.8898597 145.847994,15.808 C144.463994,15.808 142.383994,15.36 142.063994,13.744 L142.959994,13.744 C143.271994,14.704 144.559994,15.024 145.847994,15.024 C147.156174,15.1551245 148.369991,14.3290545 148.727994,13.064 C148.882186,12.4548247 148.957469,11.8283626 148.951994,11.1999999 C148.140883,12.2081363 146.917912,12.7961032 145.623994,12.8 C144.524079,12.8291146 143.460742,12.4038614 142.684227,11.6243195 C141.907713,10.8447777 141.4866,9.77979316 141.519994,8.67999993 C141.532703,6.39316052 143.369454,4.53509363 145.655994,4.49599991 C147.463994,4.49599991 148.919994,5.82399992 148.919994,6.35199992 L148.919994,6.35199992 L148.919994,4.66399991 L151.231994,4.66399991 L151.231994,5.46399991 L149.799994,5.46399991 L149.831994,9.67999994 Z M145.591994,11.9999998 C147.386165,11.9124793 148.795897,10.4323042 148.795897,8.63599987 C148.795897,6.8396955 147.386165,5.35952045 145.591994,5.27199993 C143.798184,5.38958256 142.400745,6.8743612 142.391994,8.67199987 C142.402935,10.4561958 143.809599,11.9191256 145.591994,11.9999998 Z" id="Shape"></path>
                                    <path d="M152.144002,8.9920002 C152.193321,9.84420966 152.581095,10.6413895 153.221095,11.2062725 C153.861096,11.7711554 154.700266,12.0569124 155.552002,12.0000003 C156.764201,11.9973688 157.897705,11.3992139 158.584002,10.4000002 L159.552002,10.4000002 C158.763884,11.9308173 157.160493,12.8666483 155.440002,12.8000003 C154.348454,12.8388264 153.287224,12.4366433 152.495577,11.6841274 C151.703931,10.9316115 151.248513,9.8921138 151.232002,8.80000019 C151.222433,7.64166061 151.687202,6.52984028 152.5183,5.72292045 C153.349397,4.91600062 154.47445,4.48424817 155.632002,4.52800012 C158.256002,4.52800012 159.904002,6.41600015 159.904002,9.0240002 L152.144002,8.9920002 Z M159.064002,8.19200006 C158.77129,6.50996258 157.311319,5.28211637 155.604002,5.28211637 C153.896686,5.28211637 152.436714,6.50996258 152.144002,8.19200006 L159.064002,8.19200006 Z" id="Shape"></path>
                                    <path d="M160.463996,3.49600014 L159.975996,3.49600014 L159.975996,4.85600017 L159.711996,4.85600017 L159.711996,3.49600014 L159.223996,3.49600014 L159.223996,3.28800014 L160.463996,3.28800014 L160.463996,3.49600014 Z M162.503996,4.85600014 L162.247996,4.85600014 L162.247996,3.55200014 L162.247996,3.55200014 L161.735996,4.85600014 L161.567996,4.85600014 L161.055996,3.55200014 L161.055996,3.55200014 L161.055996,4.85600014 L160.799996,4.85600014 L160.799996,3.25600014 L161.199996,3.25600014 L161.663996,4.44800014 L162.127996,3.25600014 L162.519996,3.25600014 L162.503996,4.85600014 Z" id="Shape"></path>
                                </g>
                                <g id="staples_logo_transparent" fill="#CB2026">
                                    <path d="M40.2352138,6.48132402 C38.5900798,6.12446885 36.9009099,5.74791714 36.9009099,4.38885509 C36.9009099,2.89075857 38.437648,2.57677237 39.7508195,2.57677237 C41.1224521,2.58432356 42.4757496,2.90073487 43.7151747,3.5036689 L43.8337328,3.56275856 C43.8674689,3.57989325 43.9083704,3.5665857 43.926321,3.53263442 L45.1107723,1.38223446 C45.1206248,1.36502906 45.1230584,1.34439348 45.1174898,1.32527319 C45.1119211,1.3061529 45.0988522,1.29027127 45.0814151,1.28143446 L44.9549531,1.2165517 C43.1675495,0.384662062 41.4953165,0 39.6954924,0 C36.201982,0 33.9437335,1.737931 33.9437335,4.43056544 C33.9437335,7.53219297 36.4752301,8.49732398 39.2077107,9.07663432 C40.9284961,9.44159983 42.5950835,9.80308948 42.5950835,11.2177653 C42.5950835,12.745986 40.9420456,13.0715584 39.5328985,13.0715584 C38.0435836,13.0715584 36.5497523,12.6243308 34.9644618,11.704386 L34.9147804,11.6742619 C34.8985296,11.6642778 34.8790297,11.6614768 34.8607318,11.6664982 C34.842434,11.6715197 34.8269,11.683935 34.8176757,11.7009101 L33.5914467,13.9358894 C33.5731379,13.969941 33.5840625,14.0127427 33.6162875,14.0332135 L33.6670981,14.0644963 C35.4584833,15.1055138 37.4798636,15.6583639 39.5385441,15.6703445 C43.3640171,15.6703445 45.5579055,14.0401653 45.5579055,11.1969101 C45.5556472,7.64689641 42.4957205,6.97257918 40.2352138,6.48132402 Z" id="Path"></path>
                                    <path d="M54.4542723,12.839834 C54.4481488,12.8210062 54.4348171,12.8055491 54.4173488,12.7970239 C54.3998805,12.7884988 54.3797821,12.7876409 54.3616841,12.7946478 L54.205865,12.8560547 C53.5927505,13.099365 53.1704581,13.2036409 52.2863538,13.2036409 C51.2599798,13.2036409 50.5926674,12.6347582 50.5926674,11.7553651 L50.5926674,6.39674463 L54.2544173,6.39674463 C54.2731789,6.39705518 54.2912765,6.38962424 54.3046504,6.37611886 C54.3180242,6.36261347 54.3255546,6.34416429 54.3255522,6.32491015 L54.3255522,4.15713092 C54.3255522,4.11745783 54.2942095,4.08529644 54.2555465,4.08529644 L50.5971839,4.08529644 L50.5971839,1.26057931 C50.5971839,1.22090622 50.5658413,1.18874483 50.5271782,1.18874483 L47.8466372,1.18874483 C47.8278733,1.18874483 47.8098938,1.19646942 47.7967322,1.21019263 C47.7835707,1.22391585 47.7763289,1.24248629 47.7766315,1.26173793 L47.7766315,4.08413782 L45.5883888,4.08413782 C45.5696248,4.08413532 45.5516453,4.09186241 45.5384837,4.10558562 C45.5253222,4.11930883 45.5180804,4.13787928 45.5183738,4.15713092 L45.5183738,6.32954463 C45.5180747,6.34899887 45.5254702,6.36774935 45.538878,6.38150739 C45.5522858,6.39526544 45.5705589,6.40285412 45.5895179,6.40253773 L47.7777607,6.40253773 L47.7777607,12.0496547 C47.7777607,14.3170753 49.2557843,15.6703443 51.7296955,15.6703443 C53.1670707,15.6703443 54.0071391,15.3633098 54.8822104,14.9925512 L55.0481917,14.9195581 C55.0813115,14.9042417 55.0978629,14.8657784 55.0865819,14.8303443 L54.4542723,12.839834 Z" id="Path"></path>
                                    <path d="M24.1169649,0.318620682 L3.45399109,0.318620682 C1.49608964,0.318620682 0,1.95111731 0,3.96364155 L0,15.3030628 C0,15.3459353 0.0338702519,15.3806904 0.075651325,15.3806904 L2.74715931,15.3806904 C2.78894038,15.3806904 2.82281063,15.3459353 2.82281063,15.3030628 L2.82281063,3.79448292 L24.7492745,3.79448292 L24.7492745,15.3030628 C24.7492745,15.3459353 24.7831448,15.3806904 24.8249258,15.3806904 L27.4998212,15.3806904 C27.5416023,15.3806904 27.5754725,15.3459353 27.5754725,15.3030628 L27.5754725,3.96364155 C27.5754725,1.95111731 26.0827702,0.318620682 24.1169649,0.318620682 Z" id="Path"></path>
                                    <path d="M66.9762603,13.2662072 L66.5517096,13.2662072 C66.0266668,13.2662072 65.7477731,12.9719175 65.7477731,12.4169382 L65.7477731,7.93075883 C65.7477731,5.15006914 64.2799117,3.79448292 61.2448258,3.79448292 C59.5709107,3.76649111 57.9120622,4.12276203 56.3895918,4.83724155 C56.3566356,4.8520999 56.3400324,4.89018239 56.3512016,4.92529672 L57.0207722,7.02471744 C57.0268957,7.0435453 57.0402274,7.0590024 57.0576957,7.06752753 C57.075164,7.07605266 57.0952624,7.07691059 57.1133604,7.06990365 C58.5891257,6.47089674 59.9056846,6.14300708 60.8247916,6.14300708 C61.8681024,6.14300708 62.9272209,6.34113122 62.9272209,7.80562779 L62.9272209,8.43012435 C62.9272209,8.43012435 62.7612396,8.44286918 59.4111282,8.71977953 C56.0610167,8.99668988 55.5721059,11.4043037 55.5721059,12.3798623 C55.5721059,14.3170761 57.0715828,15.6715038 59.219177,15.6715038 C60.7145348,15.6932276 62.1658337,15.1520333 63.2987028,14.1502348 L63.2987028,14.1502348 C63.5493683,14.6889934 64.2584583,15.5927175 66.1926481,15.5927175 L66.983035,15.5927175 C67.0017965,15.5930281 67.0198942,15.5855972 67.033268,15.5720918 C67.0466419,15.5585864 67.0541713,15.5401372 67.0541713,15.5208831 L67.0541713,13.3380417 C67.0542979,13.3174978 67.0458476,13.2978807 67.0309552,13.2841495 C67.0160628,13.2704184 66.9961535,13.2638872 66.9762603,13.2662072 Z M62.9260919,12.2072281 C61.6840553,13.1097936 60.8010801,13.4817108 59.8943934,13.4817108 C58.9504455,13.4817108 58.3136195,12.9811867 58.3136195,12.2361936 C58.3136195,11.9198901 58.3497515,10.9257936 59.6900219,10.7496833 C61.0302924,10.5735729 62.9238337,10.3279453 62.9238337,10.3279453 L62.9260919,12.2072281 Z" id="Shape"></path>
                                    <path d="M103.27422,8.53555851 C101.467621,8.2099861 100.575613,8.03851024 100.575613,7.16606885 C100.575613,6.6481654 100.814988,5.96342057 102.768373,5.96342057 C103.972515,5.96403616 105.157033,6.2764694 106.212202,6.8717792 L106.287853,6.91233092 C106.321342,6.92996438 106.362421,6.91777578 106.38157,6.88452402 L107.429397,5.01682746 C107.439173,4.99947631 107.441441,4.97872328 107.435651,4.95958165 C107.429862,4.94044001 107.416543,4.92465054 107.398911,4.91602746 L107.310839,4.87199988 C106.04622,4.27531022 104.833541,3.78289642 102.783051,3.78289642 C99.6474732,3.78289642 97.9199131,5.02493781 97.9199131,7.27961368 C97.9199131,9.8447999 100.243651,10.4565516 102.420602,10.8273102 C104.346888,11.1551999 105.121468,11.4332689 105.121468,12.3057103 C105.121468,13.1005241 104.375116,13.4863447 102.780793,13.4863447 C101.312931,13.4863447 99.8191001,12.8467861 98.818696,12.3091861 L98.7554651,12.2779034 C98.7216845,12.2613963 98.6812162,12.2745629 98.6628769,12.3080275 L97.6229534,14.194262 C97.6137128,14.2111533 97.6112456,14.2311604 97.616331,14.2498591 C97.6214163,14.2685578 97.6335513,14.2844075 97.6500524,14.2939034 L97.7121543,14.328662 C99.3493844,15.1987861 101.099527,15.6587585 102.780793,15.6587585 C106.063157,15.6587585 107.727487,14.4688551 107.727487,12.1203309 C107.728615,9.56093783 105.525694,8.94107576 103.27422,8.53555851 Z" id="Path"></path>
                                    <path d="M74.4713878,3.7944828 C73.1966065,3.7944828 72.119422,4.22664831 71.0840151,5.15470345 L71.0840151,4.15713107 C71.0840151,4.11745798 71.0526725,4.08529659 71.0140094,4.08529659 L68.3312102,4.08529659 C68.3124462,4.08529408 68.2944667,4.09302117 68.2813051,4.10674439 C68.2681436,4.1204676 68.2609018,4.13903805 68.2611952,4.15828969 L68.2611952,20.0823719 C68.2608961,20.1018262 68.2682916,20.1205766 68.2816994,20.1343347 C68.2951072,20.1480927 68.3133803,20.1556814 68.3323393,20.1553745 L71.010622,20.1553745 C71.0293835,20.1556756 71.0474812,20.1482446 71.060855,20.1347392 C71.0742289,20.1212339 71.0817593,20.1027847 71.0817568,20.0835305 L71.0817568,14.3483583 C72.0674823,15.1895169 73.3016151,15.6715031 74.4691295,15.6715031 C77.463567,15.6715031 79.5501903,13.2302894 79.5501903,9.73357226 C79.5524469,6.40253789 77.3201683,3.7944828 74.4713878,3.7944828 Z M73.765685,13.208276 C72.7856052,13.208276 71.9590863,12.7344001 71.0806276,11.6719449 L71.0806276,7.69440004 C71.983927,6.69914485 72.8160916,6.25655174 73.765685,6.25655174 C75.5666381,6.25655174 76.7296361,7.62140694 76.7296361,9.73241386 C76.7296361,11.8109794 75.53841,13.208276 73.765685,13.208276 Z" id="Shape"></path>
                                    <rect id="Rectangle" x="81.0767624" y="0.318620682" width="2.8228105" height="15.0620697" rx="0.08859375"></rect>
                                    <path d="M95.4109978,12.3242484 C95.391796,12.2903391 95.349913,12.2780599 95.3161513,12.2964415 L95.2246923,12.3474208 C94.3112308,12.8398346 93.4869701,13.3368829 91.7560227,13.3368829 C89.8782891,13.3368829 88.6035079,12.2651587 88.3483258,10.4704553 L96.3007477,10.4704553 C96.3195092,10.4707658 96.3376069,10.4633349 96.3509807,10.4498295 C96.3643546,10.4363241 96.3718849,10.4178749 96.3718825,10.3986208 L96.3718825,9.6096001 C96.3718825,6.01787593 94.2818736,3.7944828 90.9170834,3.7944828 C87.6934337,3.7944828 85.4408309,6.27161386 85.4408309,9.81931045 C85.4408309,13.3195036 87.8763519,15.6715036 91.5008406,15.6715036 C93.2210541,15.6948163 94.9133472,15.2240707 96.3865611,14.3124415 L96.4339843,14.2811588 C96.4654011,14.259944 96.4752957,14.2173008 96.4565668,14.1838346 L95.4109978,12.3242484 Z M90.9430532,6.14068966 C92.4109148,6.14068966 93.3142142,6.92391724 93.5558468,8.40695171 L88.3618752,8.40695171 C88.6102826,6.94361379 89.5271314,6.14068966 90.9430532,6.14068966 Z" id="Shape"></path>
                                    <path d="M110.78063,13.9984558 L110.667717,13.9984558 C110.657373,13.9984269 110.647842,14.0042061 110.642876,14.013518 L110.089606,14.9937111 L109.572467,14.0193111 C109.567126,14.0098152 109.55718,14.0040463 109.546497,14.004249 L109.412131,14.004249 C109.395918,14.004249 109.382774,14.0177361 109.382774,14.0343732 L109.382774,15.3586766 C109.382774,15.3753137 109.395918,15.3888007 109.412131,15.3888007 L109.576983,15.3888007 C109.593197,15.3888007 109.60634,15.3753137 109.60634,15.3586766 L109.60634,14.5233111 L110.036537,15.3227593 C110.041675,15.3318971 110.051098,15.3376105 110.061378,15.3378214 L110.103155,15.3378214 C110.113434,15.3376105 110.122857,15.3318971 110.127996,15.3227593 L110.579646,14.5209938 L110.579646,15.357518 C110.579646,15.3741551 110.592789,15.3876421 110.609003,15.3876421 L110.776113,15.3876421 C110.792327,15.3876421 110.805472,15.3741551 110.805472,15.357518 L110.805472,14.0285801 C110.805644,14.0135967 110.795059,14.0007602 110.78063,13.9984558 L110.78063,13.9984558 Z" id="Path"></path>
                                    <path d="M109.146794,13.9984551 L108.154294,13.9984551 C108.138081,13.9984551 108.124937,14.0119422 108.124937,14.0285793 L108.124937,14.1768827 C108.124937,14.1935198 108.138081,14.2070069 108.154294,14.2070069 L108.537067,14.2070069 L108.537067,15.3528827 C108.537067,15.3695198 108.550211,15.3830069 108.566424,15.3830069 L108.734664,15.3830069 C108.750878,15.3830069 108.764021,15.3695198 108.764021,15.3528827 L108.764021,14.2070069 L109.149053,14.2070069 C109.165266,14.2070069 109.17841,14.1935198 109.17841,14.1768827 L109.17841,14.0285793 C109.178434,14.0201717 109.175033,14.0121362 109.169029,14.0064152 C109.163025,14.0006942 109.154964,13.9978084 109.146794,13.9984551 L109.146794,13.9984551 Z" id="Path"></path>
                                </g>
                            </g>
                        </g>
                    </g>
                </g>
            </g>
        </g>
    </g>
</svg>