<?xml version="1.0" encoding="UTF-8"?>
<svg width="135px" height="134px" viewBox="0 0 135 134" version="1.1" xmlns="http://www.w3.org/2000/svg" xmlns:xlink="http://www.w3.org/1999/xlink">
    <!-- Generator: sketchtool 61.2 (101010) - https://sketch.com -->
    <title>F3626F36-23F8-4B7D-A52B-7C4E87215C2E</title>
    <desc>Created with sketchtool.</desc>
    <g id="Asset-Artboard-Page" stroke="none" stroke-width="1" fill="none" fill-rule="evenodd">
        <g id="paper-Icon-/-categories-/-Cleaning" transform="translate(0.600000, 0.000000)">
            <g id="clean-dishes" transform="translate(17.000000, 17.000000)">
                <rect id="Rectangle" x="0" y="0" width="100" height="100"></rect>
                <path d="M80.98144,45.67008 L79.21856,47.04992 C81.0856,49.43664 82.2,53.38352 82.2,57.60704 C82.2,62.58992 80.3632,67.34208 77.04016,71.0392 C76.7736,71.0672 76.50928,71.10864 76.24608,71.16912 C76.04896,70.55424 75.75552,69.98864 75.40384,69.46784 C78.33824,66.18176 79.96,61.99856 79.96,57.56 C79.96,54.16528 79.00464,50.86016 77.20032,48.00192 L75.3064,49.19808 C76.8856,51.69792 77.72,54.58976 77.72,57.56 C77.72,61.38032 76.348,64.98448 73.86048,67.83824 C72.74384,67.0072 71.36512,66.52 69.88,66.52 C66.92656,66.52 64.38976,68.44304 63.5128,71.168 C63.02896,71.05712 62.53616,71 62.04,71 C60.38016,71 58.86256,71.60816 57.6888,72.60832 C53.91216,71.51632 50.6384,69.00752 48.6,65.6184 L48.6,49.49264 C51.428,44.792 56.54752,41.88 62.04,41.88 C63.09504,41.88 64.1512,41.98528 65.17712,42.1936 L65.62288,39.9984 C64.44912,39.76096 63.244,39.64 62.04,39.64 C56.86112,39.64 51.96896,41.90352 48.6,45.71152 L48.6,42.70656 C52.30608,39.34992 57.07056,37.49408 62.08704,37.49408 C64.63504,37.49408 67.1192,37.96448 69.46896,38.89184 L70.29104,36.80864 C67.67808,35.77824 64.9184,35.2552 62.08704,35.2552 C57.17024,35.2552 52.46848,36.86016 48.6,39.79568 L48.6,36.28 C48.6,34.42752 47.09248,32.92 45.24,32.92 L39.64,32.92 L39.64,27.32 C39.64,26.70176 39.13936,26.2 38.52,26.2 L37.4,26.2 L37.4,23.96 L44.12,23.96 L44.12,27.32 C44.12,27.93824 44.62064,28.44 45.24,28.44 L49.72,28.44 C50.33936,28.44 50.84,27.93824 50.84,27.32 L50.84,22.84 C50.84,19.75216 48.32784,17.24 45.24,17.24 L37.4,17.24 L37.4,16.12 C37.4,15.50176 36.89936,15 36.28,15 L27.32,15 C26.70064,15 26.2,15.50176 26.2,16.12 L26.2,26.2 L25.08,26.2 C24.46064,26.2 23.96,26.70176 23.96,27.32 L23.96,32.92 L18.36,32.92 C16.50752,32.92 15,34.42752 15,36.28 L15,81.08 C15,82.93248 16.50752,84.44 18.36,84.44 L45.24,84.44 C47.09248,84.44 48.6,82.93248 48.6,81.08 L48.6,75.42512 C50.65856,76.98304 52.9792,78.17584 55.43648,78.94192 C56.0144,82.0656 58.7528,84.44 62.04,84.44 L77.72,84.44 C81.42608,84.44 84.44,81.42608 84.44,77.72 C84.44,74.7184 82.46096,72.1704 79.73936,71.31136 C82.78016,67.40144 84.44,62.60784 84.44,57.60704 C84.44,52.82912 83.18,48.47792 80.98144,45.67008 L80.98144,45.67008 Z M37.4,19.48 L45.24,19.48 C47.09248,19.48 48.6,20.98752 48.6,22.84 L48.6,26.2 L46.36,26.2 L46.36,22.84 C46.36,22.22176 45.85936,21.72 45.24,21.72 L37.4,21.72 L37.4,19.48 Z M28.44,17.24 L35.16,17.24 L35.16,26.2 L28.44,26.2 L28.44,17.24 Z M26.2,28.44 L37.4,28.44 L37.4,32.92 L26.2,32.92 L26.2,28.44 Z M46.36,81.08 C46.36,81.69824 45.85824,82.2 45.24,82.2 L18.36,82.2 C17.74176,82.2 17.24,81.69824 17.24,81.08 L17.24,75.48 L46.36,75.48 L46.36,81.08 Z M46.36,73.24 L17.24,73.24 L17.24,44.12 L46.36,44.12 L46.36,73.24 Z M46.36,41.88 L17.24,41.88 L17.24,36.28 C17.24,35.66288 17.74176,35.16 18.36,35.16 L45.24,35.16 C45.85824,35.16 46.36,35.66288 46.36,36.28 L46.36,41.88 Z M55.42304,76.58544 C52.912,75.70176 50.58352,74.31072 48.6,72.51648 L48.6,69.40624 C50.63728,71.71008 53.248,73.46736 56.15552,74.48096 C55.79936,75.12496 55.55184,75.83504 55.42304,76.58544 Z M82.2,77.72 C82.2,80.19072 80.19072,82.2 77.72,82.2 L62.04,82.2 C59.56928,82.2 57.56,80.19072 57.56,77.72 C57.56,75.24928 59.56928,73.24 62.04,73.24 C62.66384,73.24 63.2832,73.37664 63.88128,73.64656 C64.21056,73.79552 64.588,73.7776 64.89712,73.5984 C65.20848,73.42144 65.4168,73.1056 65.456,72.74832 C65.70576,70.47472 67.60864,68.76 69.88,68.76 C72.15136,68.76 74.05424,70.47472 74.304,72.74944 C74.3432,73.1056 74.55152,73.42256 74.86288,73.59952 C75.172,73.77872 75.54944,73.79664 75.87872,73.64768 C76.4768,73.37664 77.09616,73.24 77.72,73.24 C80.19072,73.24 82.2,75.24928 82.2,77.72 L82.2,77.72 Z" id="Shape" fill="#444444" fill-rule="nonzero"></path>
                <polygon id="Path" fill="#CC0000" fill-rule="nonzero" transform="translate(56.431040, 57.560000) rotate(-45.000000) translate(-56.431040, -57.560000) " points="50.0961568 56.4401691 62.7659232 56.4401691 62.7659232 58.6798309 50.0961568 58.6798309"></polygon>
                <polygon id="Path" fill="#CC0000" fill-rule="nonzero" transform="translate(67.629920, 57.561120) rotate(-45.000000) translate(-67.629920, -57.561120) " points="61.2950368 56.4412891 73.9648032 56.4412891 73.9648032 58.6809509 61.2950368 58.6809509"></polygon>
                <path d="M22.84,53.08 L40.76,53.08 C41.37936,53.08 41.88,52.57936 41.88,51.96 L41.88,47.48 C41.88,46.86176 41.37936,46.36 40.76,46.36 L22.84,46.36 C22.22064,46.36 21.72,46.86176 21.72,47.48 L21.72,51.96 C21.72,52.57936 22.22064,53.08 22.84,53.08 Z M23.96,48.6 L39.64,48.6 L39.64,50.84 L23.96,50.84 L23.96,48.6 Z" id="Shape" fill="#CC0000" fill-rule="nonzero"></path>
                <path d="M74.00608,21.66288 C75.7768,22.25312 77.18688,23.6632 77.77824,25.43504 C77.93056,25.892 78.35728,26.2 78.84,26.2 C79.32272,26.2 79.74944,25.892 79.90176,25.43392 C80.49312,23.66208 81.9032,22.252 83.67392,21.66176 C84.132,21.50944 84.44,21.08272 84.44,20.6 C84.44,20.11728 84.132,19.69056 83.67392,19.53712 C81.9032,18.94688 80.49312,17.5368 79.90176,15.76496 C79.74944,15.308 79.32272,15 78.84,15 C78.35728,15 77.93056,15.308 77.77824,15.76608 C77.18688,17.53792 75.7768,18.948 74.00608,19.53824 C73.548,19.69056 73.24,20.11728 73.24,20.6 C73.24,21.08272 73.548,21.50944 74.00608,21.66288 Z M78.84,18.57952 C79.39104,19.36352 80.07648,20.04896 80.86048,20.6 C80.07648,21.15104 79.39104,21.83648 78.84,22.62048 C78.28896,21.83648 77.60352,21.15104 76.81952,20.6 C77.60352,20.04896 78.28896,19.36352 78.84,18.57952 Z" id="Shape" fill="#CC0000" fill-rule="nonzero"></path>
                <path d="M67.64,43 C67.64,43.48272 67.948,43.90944 68.40608,44.06288 C70.1768,44.65312 71.58688,46.0632 72.17824,47.83504 C72.33056,48.292 72.75728,48.6 73.24,48.6 C73.72272,48.6 74.14944,48.292 74.30176,47.83392 C74.89312,46.06208 76.3032,44.652 78.07392,44.06176 C78.532,43.90944 78.84,43.48272 78.84,43 C78.84,42.51728 78.532,42.09056 78.07392,41.93712 C76.3032,41.34688 74.89312,39.9368 74.30176,38.16496 C74.14944,37.708 73.72272,37.4 73.24,37.4 C72.75728,37.4 72.33056,37.708 72.17824,38.16608 C71.58688,39.93792 70.1768,41.348 68.40608,41.93824 C67.948,42.09056 67.64,42.51728 67.64,43 Z M73.24,40.97952 C73.79104,41.76464 74.47648,42.44896 75.26048,43 C74.47648,43.55104 73.79104,44.23648 73.24,45.02048 C72.68896,44.23536 72.00352,43.55104 71.21952,43 C72.00352,42.44896 72.68896,41.76352 73.24,40.97952 Z" id="Shape" fill="#CC0000" fill-rule="nonzero"></path>
            </g>
        </g>
    </g>
</svg>