<?xml version="1.0" encoding="UTF-8"?>
<svg width="135px" height="134px" viewBox="0 0 135 134" version="1.1" xmlns="http://www.w3.org/2000/svg" xmlns:xlink="http://www.w3.org/1999/xlink">
    <!-- Generator: sketchtool 61.2 (101010) - https://sketch.com -->
    <title>6C7461DD-230A-49B6-9A93-0BF349EDA435</title>
    <desc>Created with sketchtool.</desc>
    <g id="Asset-Artboard-Page" stroke="none" stroke-width="1" fill="none" fill-rule="evenodd">
        <g id="paper-Icon-/-categories-/-ink-&amp;-tonner" transform="translate(0.600000, 0.000000)">
            <g id="Group-5" transform="translate(17.000000, 17.000000)">
                <rect id="Rectangle" x="0" y="0" width="100" height="100"></rect>
                <g id="Group" transform="translate(17.000000, 10.420000)">
                    <path d="M14.4367457,5.01845443 L23.1368644,4 L23.1368644,4 L22.11841,12.7001188 C21.6649789,16.5735417 18.3830079,19.4937289 14.4831356,19.4937289 C10.7055079,19.4937289 7.64313555,16.4313566 7.64313555,12.6537289 C7.64313555,8.7538565 10.5633228,5.47188556 14.4367457,5.01845443 Z" id="Rectangle" stroke="#444444" stroke-width="2" transform="translate(15.390000, 11.746864) rotate(-45.000000) translate(-15.390000, -11.746864) "></path>
                    <path d="M31.5886101,5.01845443 L40.2887289,4 L40.2887289,4 L39.2702745,12.7001188 C38.8168433,16.5735417 35.5348724,19.4937289 31.635,19.4937289 C27.8573723,19.4937289 24.795,16.4313566 24.795,12.6537289 C24.795,8.7538565 27.7151872,5.47188556 31.5886101,5.01845443 Z" id="Rectangle-Copy" stroke="#444444" stroke-width="2" transform="translate(32.541864, 11.746864) rotate(-45.000000) translate(-32.541864, -11.746864) "></path>
                    <path d="M48.7936101,5.01845443 L57.4937289,4 L57.4937289,4 L56.4752745,12.7001188 C56.0218433,16.5735417 52.7398724,19.4937289 48.84,19.4937289 C45.0623723,19.4937289 42,16.4313566 42,12.6537289 C42,8.7538565 44.9201872,5.47188556 48.7936101,5.01845443 Z" id="Rectangle-Copy-2" stroke="#444444" stroke-width="2" transform="translate(49.746864, 11.746864) rotate(-45.000000) translate(-49.746864, -11.746864) "></path>
                    <circle id="Oval" stroke="#CC0000" stroke-width="1.71" fill="#EDEDED" cx="58.5675" cy="46.8018644" r="2.1375"></circle>
                    <circle id="Oval-Copy" stroke="#CC0000" stroke-width="1.71" fill="#EDEDED" cx="14.9625" cy="46.8018644" r="2.1375"></circle>
                    <circle id="Oval-Copy-2" stroke="#CC0000" stroke-width="1.71" fill="#CC0000" cx="8.1225" cy="46.8018644" r="2.1375"></circle>
                    <rect id="Rectangle" stroke="#444444" stroke-width="2" x="11.115" y="53.2143644" width="43.605" height="24.795"></rect>
                    <polyline id="Path" stroke="#444444" stroke-width="2" points="11.1797109 64.3293644 0 64.3293644 0 37.8243644 0 37.8243644 65.835 37.8243644 65.835 64.3293644 54.7234024 64.3293644"></polyline>
                    <polygon id="Rectangle" stroke="#444444" stroke-width="2" points="11.115 23.2893644 47.3171017 23.2893644 54.72 30.8735812 54.72 37.8243644 11.115 37.8243644"></polygon>
                    <polyline id="Path-2" stroke="#444444" stroke-width="2" points="47.3171017 23.2893644 47.3171017 31.3886359 54.72 31.3886359"></polyline>
                    <line x1="16.7357387" y1="59.6346924" x2="49.583035" y2="59.6346924" id="Path-3" stroke="#CC0000" stroke-width="1.71"></line>
                    <line x1="16.7357387" y1="64.3293644" x2="49.583035" y2="64.3293644" id="Path-3-Copy" stroke="#CC0000" stroke-width="1.71"></line>
                    <line x1="16.7357387" y1="68.6043644" x2="49.583035" y2="68.6043644" id="Path-3-Copy-2" stroke="#CC0000" stroke-width="1.71"></line>
                    <line x1="16.7357387" y1="72.8793644" x2="49.583035" y2="72.8793644" id="Path-3-Copy-3" stroke="#CC0000" stroke-width="1.71"></line>
                </g>
            </g>
        </g>
    </g>
</svg>