<?xml version="1.0" encoding="UTF-8"?>
<svg width="30px" height="30px" viewBox="0 0 30 30" version="1.1" xmlns="http://www.w3.org/2000/svg" xmlns:xlink="http://www.w3.org/1999/xlink">
    <!-- Generator: sketchtool 61.2 (101010) - https://sketch.com -->
    <title>C7E128D2-C519-4A35-839C-558FDD9D7E85</title>
    <desc>Created with sketchtool.</desc>
    <g id="Member" stroke="none" stroke-width="1" fill="none" fill-rule="evenodd">
        <g id="Homepage-Member-1024" transform="translate(-184.000000, -4014.000000)" fill="#FFFFFF">
            <g id="footer-/-1024-Footer-/-Standard-/-1024" transform="translate(0.000000, 3732.000000)">
                <g id="Group-6">
                    <g id="Group-4" transform="translate(0.000000, 234.000000)">
                        <g id="Social-media-icons-Footer-/-Elements-/-Social-media-icon" transform="translate(25.000000, 19.000000)">
                            <g id="icon-/-social-/-Instagram-Icon-/-social-/-instagram" transform="translate(159.000000, 29.000000)">
                                <g id="icon-/-social-/-Instagram">
                                    <path d="M25.2984755,0 L4.34184363,0 C1.94795008,0 0,1.94795008 0,4.34184363 L0,25.2984755 C0,27.6923691 1.94795008,29.6403192 4.34184363,29.6403192 L25.2984755,29.6403192 C27.6923691,29.6403192 29.6403192,27.6923691 29.6403192,25.2984755 L29.6403192,4.34184363 C29.6403192,1.94795008 27.6923691,0 25.2984755,0 Z M14.8780508,22.5775869 C10.5685449,22.5775869 7.0627323,19.0717743 7.0627323,14.7622683 C7.0627323,10.4527624 10.5685449,6.94694981 14.8780508,6.94694981 C19.1875568,6.94694981 22.6933694,10.4527624 22.6933694,14.7622683 C22.6933694,19.0717743 19.1875568,22.5775869 14.8780508,22.5775869 Z M23.5617381,8.68368726 C22.1253115,8.68368726 20.9566319,7.51500768 20.9566319,6.07858108 C20.9566319,4.64215448 22.1253115,3.4734749 23.5617381,3.4734749 C24.9981647,3.4734749 26.1668443,4.64215448 26.1668443,6.07858108 C26.1668443,7.51500768 24.9981647,8.68368726 23.5617381,8.68368726 Z" id="Shape"></path>
                                    <path d="M23.5617381,5.21021236 C23.0825523,5.21021236 22.6933694,5.5993953 22.6933694,6.07858108 C22.6933694,6.55776686 23.0825523,6.94694981 23.5617381,6.94694981 C24.0409239,6.94694981 24.4301068,6.55776686 24.4301068,6.07858108 C24.4301068,5.5993953 24.0409239,5.21021236 23.5617381,5.21021236 Z" id="Path"></path>
                                    <path d="M14.8780508,8.68368726 C11.5266903,8.68368726 8.79946976,11.4109078 8.79946976,14.7622683 C8.79946976,18.1136289 11.5266903,20.8408494 14.8780508,20.8408494 C18.2294114,20.8408494 20.9566319,18.1136289 20.9566319,14.7622683 C20.9566319,11.4109078 18.2294114,8.68368726 14.8780508,8.68368726 Z" id="Path"></path>
                                </g>
                            </g>
                        </g>
                    </g>
                </g>
            </g>
        </g>
    </g>
</svg>