<?xml version="1.0" encoding="UTF-8"?>
<svg width="101px" height="100px" viewBox="0 0 101 100" version="1.1" xmlns="http://www.w3.org/2000/svg" xmlns:xlink="http://www.w3.org/1999/xlink">
    <!-- Generator: sketchtool 61.2 (101010) - https://sketch.com -->
    <title>63AD52EE-7AFF-4D4C-81C4-5B8A4AA5DA6F</title>
    <desc>Created with sketchtool.</desc>
    <g id="Asset-Artboard-Page" stroke="none" stroke-width="1" fill="none" fill-rule="evenodd">
        <g id="Icon-/-Box-Icon-/-membership-benefits-/-laptop" transform="translate(0.200000, 0.000000)">
            <rect id="Rectangle" x="0" y="0" width="100" height="100"></rect>
            <g id="Group" transform="translate(19.000000, 29.000000)">
                <path d="M6.25277607e-13,33.3333333 L24.2489692,33.3333333 C24.2489692,35.2069261 25.7678162,36.7257731 27.6414089,36.7257731 L33.7023259,36.7257731 C35.5759186,36.7257731 37.0947656,35.2069261 37.0947656,33.3333333 L37.0947656,33.3333333 L37.0947656,33.3333333 L61.5384615,33.3333333 C61.5384615,37.5816776 58.0944981,41.025641 53.8461538,41.025641 L7.69230769,41.025641 C3.44396346,41.025641 6.2579788e-13,37.5816776 6.25277607e-13,33.3333333 L6.25277607e-13,33.3333333 L6.25277607e-13,33.3333333 Z" id="Path-19" stroke="#4A4A4A" stroke-width="2.11538462"></path>
                <path d="M4.48717949,33.3333333 L4.48717949,3.52564103 C4.48717949,1.57848325 6.06566274,7.45205851e-14 8.01282051,7.46069873e-14 L54.1666667,7.46069873e-14 C56.1138244,7.46933894e-14 57.6923077,1.57848325 57.6923077,3.52564103 L57.6923077,33.3333333 L57.6923077,33.3333333" id="Path-20" stroke="#4A4A4A" stroke-width="2.11538462"></path>
                <path d="M8.33333333,32.6923077 L8.33333333,4.55128205 C8.33333333,4.1618505 8.64902998,3.84615385 9.03846154,3.84615385 L53.7820513,3.84615385 C54.1714828,3.84615385 54.4871795,4.1618505 54.4871795,4.55128205 L54.4871795,32.6923077 L54.4871795,32.6923077" id="Path-20" stroke="#4A4A4A" stroke-width="2.11538462"></path>
                <path d="M16.6700053,21.5421221 C16.7524907,22.2579594 17.0801358,22.7529953 17.6529506,23.0272447 C17.9462318,23.1666935 18.285333,23.2364169 18.6702646,23.2364169 C19.4034675,23.2364169 19.9464878,22.9993574 20.2993417,22.5252314 C20.6521956,22.0511054 20.8286199,21.525856 20.8286199,20.9494675 C20.8286199,20.2522233 20.6189728,19.7130293 20.1996724,19.3318691 C19.780372,18.950709 19.2774482,18.7601318 18.6908858,18.7601318 C18.2647116,18.7601318 17.8992613,18.8437998 17.5945238,19.0111384 C17.2897863,19.178477 17.0297323,19.4108882 16.8143539,19.7083791 L15.74205,19.6456274 L16.491288,14.2699019 L21.6053529,14.2699019 L21.6053529,15.4831006 L17.4192433,15.4831006 L16.999945,18.2581185 C17.2290709,18.0814833 17.4467373,17.9490089 17.6529506,17.8606913 C18.0195521,17.7072976 18.4434287,17.6306019 18.9245931,17.6306019 C19.8273492,17.6306019 20.5926183,17.9257642 21.2204233,18.5160975 C21.8482283,19.1064309 22.1621261,19.8547951 22.1621261,20.7612125 C22.1621261,21.7048163 21.8745774,22.5368485 21.2994713,23.2573341 C20.7243653,23.9778197 19.8067297,24.3380571 18.5465372,24.3380571 C17.7445965,24.3380571 17.0354624,24.1091321 16.4191137,23.6512751 C15.802765,23.1934181 15.4579357,22.4903741 15.3846154,21.5421221 L16.6700053,21.5421221 Z M26.5681954,14.1025641 C27.8421355,14.1025641 28.7632078,14.6347858 29.3314401,15.6992452 C29.7713619,16.5219933 29.9913194,17.6491878 29.9913194,19.0808625 C29.9913194,20.4381644 29.7919829,21.5607107 29.3933038,22.4485349 C28.8159065,23.7221676 27.8719219,24.3589744 26.5613216,24.3589744 C25.3790319,24.3589744 24.4992016,23.8383732 23.9218043,22.7971553 C23.4406399,21.9279242 23.2000613,20.7612198 23.2000613,19.2970071 C23.2000613,18.1628233 23.3444084,17.1890202 23.6331071,16.3755687 C24.1738442,14.8602247 25.1521972,14.1025641 26.5681954,14.1025641 Z M26.5544479,23.2154997 C27.1960005,23.2154997 27.7069436,22.9273097 28.0872926,22.3509212 C28.4676416,21.7745327 28.6578133,20.7007928 28.6578133,19.1296693 C28.6578133,17.9954855 28.5203398,17.0623544 28.2453887,16.330248 C27.9704376,15.5981417 27.4365822,15.232094 26.6438066,15.232094 C25.9151862,15.232094 25.3824764,15.5795488 25.0456613,16.2744688 C24.7088462,16.9693888 24.5404412,17.9931603 24.5404412,19.3458139 C24.5404412,20.3637904 24.6481287,21.1818779 24.8635071,21.8001011 C25.1934484,22.7437049 25.7570897,23.2154997 26.5544479,23.2154997 Z M34.3973888,14.1025641 C35.6713289,14.1025641 36.5924012,14.6347858 37.1606335,15.6992452 C37.6005552,16.5219933 37.8205128,17.6491878 37.8205128,19.0808625 C37.8205128,20.4381644 37.6211763,21.5607107 37.2224972,22.4485349 C36.6450999,23.7221676 35.7011153,24.3589744 34.390515,24.3589744 C33.2082253,24.3589744 32.328395,23.8383732 31.7509977,22.7971553 C31.2698333,21.9279242 31.0292547,20.7612198 31.0292547,19.2970071 C31.0292547,18.1628233 31.1736018,17.1890202 31.4623005,16.3755687 C32.0030376,14.8602247 32.9813906,14.1025641 34.3973888,14.1025641 Z M34.3836413,23.2154997 C35.0251938,23.2154997 35.536137,22.9273097 35.916486,22.3509212 C36.296835,21.7745327 36.4870067,20.7007928 36.4870067,19.1296693 C36.4870067,17.9954855 36.3495332,17.0623544 36.0745821,16.330248 C35.799631,15.5981417 35.2657756,15.232094 34.4729999,15.232094 C33.7443795,15.232094 33.2116698,15.5795488 32.8748547,16.2744688 C32.5380396,16.9693888 32.3696346,17.9931603 32.3696346,19.3458139 C32.3696346,20.3637904 32.4773221,21.1818779 32.6927005,21.8001011 C33.0226418,22.7437049 33.5862831,23.2154997 34.3836413,23.2154997 Z" id="500" stroke="#CC0000" stroke-width="0.5" fill="#CC0000" fill-rule="nonzero"></path>
                <polygon id="+" stroke="#CC0000" stroke-width="0.641025641" fill="#CC0000" fill-rule="nonzero" points="41.025641 19.4804318 41.025641 18.3468286 43.9732527 18.3468286 43.9732527 15.3846154 45.1293114 15.3846154 45.1293114 18.3468286 48.0769231 18.3468286 48.0769231 19.4804318 45.1293114 19.4804318 45.1293114 22.4358974 43.9732527 22.4358974 43.9732527 19.4804318"></polygon>
            </g>
        </g>
    </g>
</svg>