<?xml version="1.0" encoding="UTF-8"?>
<svg width="30px" height="30px" viewBox="0 0 30 30" version="1.1" xmlns="http://www.w3.org/2000/svg" xmlns:xlink="http://www.w3.org/1999/xlink">
    <!-- Generator: sketchtool 61.2 (101010) - https://sketch.com -->
    <title>A58FCC23-C4A3-4D3E-9CB2-389106D0F755</title>
    <desc>Created with sketchtool.</desc>
    <g id="Member" stroke="none" stroke-width="1" fill="none" fill-rule="evenodd">
        <g id="Homepage-Member-1440" transform="translate(-24.000000, -4133.000000)" fill="#FFFFFF">
            <g id="footer-/-1440-Footer-/-Standard-/-1440" transform="translate(0.000000, 3851.000000)">
                <g id="Group-3">
                    <g id="Group-4" transform="translate(0.000000, 234.000000)">
                        <g id="Social-media-icons-Footer-/-Elements-/-Social-media-icon" transform="translate(24.000000, 19.000000)">
                            <g id="icon-/-social-/-Linkedin-Icon-/-social-/-linkedin" transform="translate(0.000000, 29.000000)">
                                <g id="icon-/-social-/-Linkedin">
                                    <path d="M27.7685958,0 L2.20385681,0 C0.991735564,0 1.77635684e-14,0.992647059 1.77635684e-14,2.15073529 L1.77635684e-14,27.8492647 C1.77635684e-14,29.0625 0.991735564,30 2.20385681,30 L27.7685958,30 C28.980717,30 29.9724526,29.0073529 29.9724526,27.8492647 L29.9724526,2.15073529 C30.027549,0.992647059 29.0358135,0 27.7685958,0 Z M8.92562008,25.5882353 L4.46281004,25.5882353 L4.46281004,11.25 L8.92562008,11.25 L8.92562008,25.5882353 Z M6.66666685,9.31985294 C5.23415992,9.31985294 4.0771351,8.16176471 4.0771351,6.72794118 C4.0771351,5.29411765 5.23415992,4.13602941 6.66666685,4.13602941 C8.09917377,4.13602941 9.2561986,5.29411765 9.2561986,6.72794118 C9.2561986,8.16176471 8.09917377,9.31985294 6.66666685,9.31985294 Z M25.564739,25.5882353 L21.1019289,25.5882353 L21.1019289,18.6397059 C21.1019289,16.9852941 21.0468325,14.8345588 18.7878793,14.8345588 C16.4738296,14.8345588 16.1432511,16.6544118 16.1432511,18.5294118 L16.1432511,25.6433824 L11.6804411,25.6433824 L11.6804411,11.3051471 L15.9779619,11.3051471 L15.9779619,13.2352941 L16.0330583,13.2352941 C16.6391189,12.1323529 18.0716258,10.9191176 20.2203862,10.9191176 C24.7382927,10.9191176 25.564739,13.8970588 25.564739,17.7573529 L25.564739,25.5882353 L25.564739,25.5882353 Z" id="Shape"></path>
                                </g>
                            </g>
                        </g>
                    </g>
                </g>
            </g>
        </g>
    </g>
</svg>