<?xml version="1.0" encoding="UTF-8"?>
<svg width="101px" height="100px" viewBox="0 0 101 100" version="1.1" xmlns="http://www.w3.org/2000/svg" xmlns:xlink="http://www.w3.org/1999/xlink">
    <!-- Generator: sketchtool 61.2 (101010) - https://sketch.com -->
    <title>DFFB57D3-6DD6-4698-BA78-D1ACE1E58587</title>
    <desc>Created with sketchtool.</desc>
    <defs>
        <path d="M16.6614773,8.72913951 C17.7783517,8.72913951 18.7323343,9.12469327 19.5234537,9.91581266 C20.3145731,10.706932 20.7101269,11.6609146 20.7101269,12.7777891 C20.7101269,13.8946635 20.3145731,14.8486461 19.5234537,15.6397655 C18.7323343,16.4308849 17.7783517,16.8264386 16.6614773,16.8264386 C15.5368468,16.8264386 14.5789862,16.4308849 13.7878668,15.6397655 C12.9967474,14.8486461 12.6011937,13.8946635 12.6011937,12.7777891 C12.6011937,11.6609146 12.9967474,10.706932 13.7878668,9.91581266 C14.5789862,9.12469327 15.5368468,8.72913951 16.6614773,8.72913951 Z" id="path-1"></path>
        <path d="M4.61887255,1.62255674 C5.74350306,1.62255674 6.70136363,2.02004949 7.49248302,2.81504691 C8.28360241,3.61004433 8.67915617,4.56596592 8.67915617,5.68284035 C8.67915617,6.79971478 8.28360241,7.75369738 7.49248302,8.54481677 C6.70136363,9.33593616 5.74350306,9.73148992 4.61887255,9.73148992 C3.50199812,9.73148992 2.54801552,9.33593616 1.75689614,8.54481677 C0.965776747,7.75369738 0.570222986,6.79971478 0.570222986,5.68284035 C0.570222986,4.56596592 0.965776747,3.61004433 1.75689614,2.81504691 C2.54801552,2.02004949 3.50199812,1.62255674 4.61887255,1.62255674 Z" id="path-2"></path>
        <path d="M16.6614773,15.1744035 C17.3207435,15.1744035 17.8849893,14.9397858 18.3542316,14.4705434 C18.823474,14.001301 19.0580917,13.4370552 19.0580917,12.7777891 C19.0580917,12.1185229 18.823474,11.5542771 18.3542316,11.0850347 C17.8849893,10.6157923 17.3207435,10.3811747 16.6614773,10.3811747 C15.9944551,10.3811747 15.4263313,10.6157923 14.9570889,11.0850347 C14.4878465,11.5542771 14.2532288,12.1185229 14.2532288,12.7777891 C14.2532288,13.4370552 14.4878465,14.001301 14.9570889,14.4705434 C15.4263313,14.9397858 15.9944551,15.1744035 16.6614773,15.1744035 Z" id="path-3"></path>
        <path d="M4.61934609,8.07943545 C5.28636832,8.07943545 5.8544921,7.84481777 6.32373448,7.37557539 C6.79297687,6.90633301 7.02759454,6.3420872 7.02759454,5.68282105 C7.02759454,5.02355489 6.79297687,4.45930908 6.32373448,3.9900667 C5.8544921,3.52082432 5.28636832,3.28620665 4.61934609,3.28620665 C3.96007993,3.28620665 3.39583413,3.51888533 2.92659174,3.98424968 C2.45734936,4.44961402 2.22273169,5.01579882 2.22273169,5.68282105 C2.22273169,6.3420872 2.45734936,6.90633301 2.92659174,7.37557539 C3.39583413,7.84481777 3.96007993,8.07943545 4.61934609,8.07943545 Z" id="path-4"></path>
    </defs>
    <g id="Asset-Artboard-Page" stroke="none" stroke-width="1" fill="none" fill-rule="evenodd">
        <g id="Icon-/-Box-Icon-/-membership-benefits-/-tag" transform="translate(0.200000, 0.000000)">
            <rect id="Rectangle" x="0" y="0" width="100" height="100"></rect>
            <g id="Group" transform="translate(21.000000, 26.000000)">
                <path d="M7.91393354,20.5365611 L7.91393354,17.6923077 C7.91393354,15.7097471 9.52111649,14.1025641 11.5036771,14.1025641 L45.1795256,14.1025641 C47.1620863,14.1025641 48.7692692,15.7097471 48.7692692,17.6923077 L48.7692692,20.5365611 L48.7692692,20.5365611 C52.9892699,20.5365611 56.4102564,23.9575476 56.4102564,28.1775483 L56.4102564,33.277132 C56.4102564,37.4971327 52.9892699,40.9181192 48.7692692,40.9181192 L48.7692692,40.9181192 L48.7692692,40.9181192 L48.7692692,43.8461538 C48.7692692,45.8287145 47.1620863,47.4358974 45.1795256,47.4358974 L11.5036771,47.4358974 C9.52111649,47.4358974 7.91393354,45.8287145 7.91393354,43.8461538 L7.91393354,40.9181192 L7.91393354,40.9181192 C3.54318873,40.9181192 6.4801733e-13,37.3749304 6.50146603e-13,33.0041856 L6.50146603e-13,28.4504947 C6.49446698e-13,24.0797499 3.54318873,20.5365611 7.91393354,20.5365611 L7.91393354,20.5365611 L7.91393354,20.5365611 Z" id="Path-16" stroke="#4A4A4A" stroke-width="1.92307692"></path>
                <path d="M10.8974359,13.7964174 L37.9398251,1.44236075 C39.7004254,0.638047363 41.7816814,1.3744312 42.6446826,3.10701952 L43.9722089,5.77220307 L43.9722089,5.77220307 C46.5797524,4.32734285 49.864576,5.25586463 51.3298532,7.85198998 L55.1742728,14.6633939 C56.5787498,17.1517956 55.7588469,20.3055697 53.3202657,21.7948718 L53.3202657,21.7948718 L53.3202657,21.7948718" id="Path-17" stroke="#4A4A4A" stroke-width="1.92307692"></path>
                <g id="Group-2-Copy" transform="translate(17.948718, 21.794872)">
                    <g id="Untitled-3-03" fill-rule="nonzero">
                        <g id="Path" transform="translate(16.655660, 12.777789) rotate(-4.669328) translate(-16.655660, -12.777789) " fill="#CC0000">
                            <use xlink:href="#path-1"></use>
                            <use xlink:href="#path-1"></use>
                        </g>
                        <g id="Path" transform="translate(4.624690, 5.677023) rotate(-4.669328) translate(-4.624690, -5.677023) " fill="#CC0000">
                            <use xlink:href="#path-2"></use>
                            <use xlink:href="#path-2"></use>
                        </g>
                        <g id="Path" transform="translate(16.655660, 12.777789) rotate(-4.669328) translate(-16.655660, -12.777789) ">
                            <use fill="#CC0000" xlink:href="#path-3"></use>
                            <use fill="#FFFFFF" xlink:href="#path-3"></use>
                        </g>
                        <g id="Path" transform="translate(4.625163, 5.682821) rotate(-4.669328) translate(-4.625163, -5.682821) ">
                            <use fill="#CC0000" xlink:href="#path-4"></use>
                            <use fill="#FFFFFF" xlink:href="#path-4"></use>
                        </g>
                    </g>
                    <line x1="6.5227173" y1="18.2159575" x2="14.72849" y2="0.022398622" id="Path-18-Copy" stroke="#4A4A4A" stroke-width="1.61538462" stroke-linecap="round"></line>
                </g>
            </g>
        </g>
    </g>
</svg>