<?xml version="1.0" encoding="UTF-8"?>
<svg width="135px" height="134px" viewBox="0 0 135 134" version="1.1" xmlns="http://www.w3.org/2000/svg" xmlns:xlink="http://www.w3.org/1999/xlink">
    <!-- Generator: sketchtool 61.2 (101010) - https://sketch.com -->
    <title>2C83293A-34CD-40A3-B41F-B3C6F5CE4070</title>
    <desc>Created with sketchtool.</desc>
    <g id="Asset-Artboard-Page" stroke="none" stroke-width="1" fill="none" fill-rule="evenodd">
        <g id="paper-Icon-/-categories-/-Tea" transform="translate(0.600000, 0.000000)">
            <g id="Group-17" transform="translate(17.000000, 17.000000)">
                <rect id="Rectangle" x="0" y="0" width="100" height="100"></rect>
                <g id="Group" transform="translate(11.000000, 15.000000)" stroke-width="2.3">
                    <path d="M12.8361866,28.092774 L61.2211546,28.092774 C62.8155278,28.0927599 64.1313896,29.3398785 64.2168554,30.9319594 C64.9614149,44.8018245 60.6971834,54.6669494 51.4241611,60.527334 C48.1894072,62.4167312 24.9818412,62.0510789 22.6903903,60.527334 C13.6937743,54.2338158 9.40955034,44.390348 9.83771841,30.9969306 C9.88945321,29.3782137 11.2166432,28.092774 12.8361866,28.092774 Z" id="Rectangle" stroke="#444444"></path>
                    <path d="M64.2998648,37.1647108 C73.7330333,33.4870633 78.3112383,35.0103909 78.0344798,41.7346938 C77.7577214,48.4589967 70.798613,53.0925869 57.1571548,55.6354643" id="Path-21" stroke="#444444"></path>
                    <path d="M1.24611426,62.242774 C1.79306647,65.4783957 4.60874004,67.942774 8,67.942774 L66,67.942774 C69.39126,67.942774 72.2069335,65.4783957 72.7538857,62.242774 L1.24611426,62.242774 Z" id="Rectangle" stroke="#444444"></path>
                    <path d="M28.7237,-1.15463195e-13 C31.0017667,4.54625676 31.0017667,8.22575747 28.7237,11.0385021 C25.3066,15.2576191 27.65748,20.9056917 28.7237,21.7589129" id="Path-22" stroke="#D0021B"></path>
                    <path d="M38.7844544,-1.15463195e-13 C41.062521,4.54625676 41.062521,8.22575747 38.7844544,11.0385021 C35.3673544,15.2576191 37.7182344,20.9056917 38.7844544,21.7589129" id="Path-22-Copy" stroke="#D0021B"></path>
                    <path d="M48.7844544,-1.15463195e-13 C51.062521,4.54625676 51.062521,8.22575747 48.7844544,11.0385021 C45.3673544,15.2576191 47.7182344,20.9056917 48.7844544,21.7589129" id="Path-22-Copy-2" stroke="#D0021B"></path>
                </g>
            </g>
        </g>
    </g>
</svg>