<?xml version="1.0" encoding="UTF-8"?>
<svg width="30px" height="30px" viewBox="0 0 30 30" version="1.1" xmlns="http://www.w3.org/2000/svg" xmlns:xlink="http://www.w3.org/1999/xlink">
    <!-- Generator: sketchtool 61.2 (101010) - https://sketch.com -->
    <title>EE7E89D9-B870-471C-AD84-B9CBD233C359</title>
    <desc>Created with sketchtool.</desc>
    <g id="Member" stroke="none" stroke-width="1" fill="none" fill-rule="evenodd">
        <g id="Homepage-Member-1440" transform="translate(-64.000000, -4133.000000)" fill="#FFFFFF">
            <g id="footer-/-1440-Footer-/-Standard-/-1440" transform="translate(0.000000, 3851.000000)">
                <g id="Group-3">
                    <g id="Group-4" transform="translate(0.000000, 234.000000)">
                        <g id="Social-media-icons-Footer-/-Elements-/-Social-media-icon" transform="translate(24.000000, 19.000000)">
                            <g id="icon-/-social-/-Twitter-Icon-/-social-/-twitter" transform="translate(40.000000, 29.000000)">
                                <g id="icon-/-social-/-Twitter" transform="translate(0.000000, 0.000000)">
                                    <path d="M28,30 L2,30 C0.8954305,30 1.3527075e-16,29.1045695 0,28 L0,2 C-1.3527075e-16,0.8954305 0.8954305,2.02906125e-16 2,0 L28,0 C29.1045695,-2.02906125e-16 30,0.8954305 30,2 L30,28 C30,29.1045695 29.1045695,30 28,30 Z M11.53125,22.640625 C18.609375,22.640625 22.453125,16.78125 22.453125,11.71875 C22.453125,11.53125 22.453125,11.390625 22.453125,11.203125 C23.203125,10.640625 23.859375,9.984375 24.375,9.234375 C23.671875,9.5625 22.921875,9.75 22.171875,9.84375 C22.96875,9.375 23.578125,8.625 23.859375,7.734375 C23.109375,8.15625 22.3125,8.484375 21.421875,8.671875 C20.71875,7.921875 19.734375,7.453125 18.609375,7.453125 C16.5,7.453125 14.765625,9.1875 14.765625,11.296875 C14.765625,11.578125 14.8125,11.90625 14.859375,12.1875 C11.671875,12.046875 8.8125,10.5 6.9375,8.15625 C6.609375,8.71875 6.421875,9.375 6.421875,10.078125 C6.421875,11.390625 7.078125,12.609375 8.15625,13.265625 C7.546875,13.265625 6.9375,13.078125 6.421875,12.796875 C6.421875,12.796875 6.421875,12.84375 6.421875,12.84375 C6.421875,14.71875 7.734375,16.265625 9.515625,16.59375 C9.1875,16.6875 8.859375,16.734375 8.484375,16.734375 C8.25,16.734375 8.015625,16.6875 7.78125,16.6875 C8.25,18.234375 9.703125,19.3125 11.390625,19.359375 C10.078125,20.390625 8.4375,21 6.609375,21 C6.28125,21 6,21 5.671875,20.953125 C7.3125,21.984375 9.328125,22.640625 11.53125,22.640625 L11.53125,22.640625 Z" id="Shape"></path>
                                </g>
                            </g>
                        </g>
                    </g>
                </g>
            </g>
        </g>
    </g>
</svg>